<svg xmlns="http://www.w3.org/2000/svg"  width="410px" height="515px"  viewBox="0 0 61.46 77.19">
  <path fill="currentColor" d="M17.45 46.78c-1.48,-9.24 43.61,-14.73 43.61,-32.57l0 -14.21 -61.06 0 0 13.95 42.38 0c0,2.63 -3.69,6.32 -11.12,8.31 -7.88,2.11 -31.26,5.43 -31.26,24.52l17.45 0z"></path>
  <path fill="currentColor" d="M61.46 43.5c0,-6.5 -3.29,-10.76 -9.32,-13.29 -2.97,1.88 -6.1,3.44 -8.82,4.73 -2.75,1.3 -5.53,2.52 -8.31,3.75 -1.85,0.82 -3.72,1.66 -5.55,2.56 0.97,-0.06 1.98,-0.09 3.01,-0.1 6.79,0 9.91,1.52 9.91,3.59 0,2.58 -6.12,4.1 -13.8,5.95 -12.54,3.01 -28.58,7.12 -28.58,18.25l0 8.25 61.06 0 0 -13.95 -31.43 0c1.46,-1.78 5.49,-2.97 10.53,-4.17 9.36,-2.28 21.3,-5.4 21.3,-15.57z"></path>
 </g></svg>